<svg width="93" height="47" viewBox="0 0 93 47" fill="none" xmlns="http://www.w3.org/2000/svg">
<path d="M5.90625 46.6875C2.28125 46.6875 0.0625 44.625 0.0625 41.2188C0.0625 40.25 0.375 38.8438 0.875 37.4688L12 6.90625C13.6562 2.3125 16.4375 0.21875 20.9062 0.21875C25.625 0.21875 28.375 2.21875 30.0938 6.90625L41.3125 37.4688C41.8438 38.9375 42.0625 40 42.0625 41.1875C42.0625 44.4062 39.6562 46.6875 36.3125 46.6875C33 46.6875 31.2812 45.1875 30.2812 41.5L28.75 36.5H13.3125L11.7812 41.3125C10.6875 45.125 8.96875 46.6875 5.90625 46.6875ZM15.5938 27.8438H26.25L20.9688 10.4688H20.7188L15.5938 27.8438ZM52.4062 46.7188C49 46.7188 46.8438 44.7188 46.8438 40.9688V16.7812C46.8438 13.2188 49.0312 11.25 52.25 11.25C55.3438 11.25 57.4688 13.2188 57.4688 16.8125V18.5H57.6875C58.5312 13.9062 61.0312 11.4688 64.4375 11.4688C65.6875 11.4688 66.6875 11.75 67.4062 12.3438C68.5 13.1562 69.0625 14.5625 69.0625 16.5625C69.0625 18.3125 68.5312 19.625 67.5 20.5312C66.4688 21.4688 64.9062 21.9375 62.8438 22.0312C59.0312 22.125 57.9375 23.8125 57.9375 27.6875V40.9688C57.9375 44.7188 55.7812 46.7188 52.4062 46.7188ZM74.8125 36.875V20.1562H73.5938C71.125 20.1562 69.5 18.5312 69.5 16.0625C69.5 13.5625 71.125 11.9688 73.5938 11.9688H74.8125V9.25C74.8125 5.65625 76.8438 3.5 80.375 3.5C83.875 3.5 85.9062 5.65625 85.9062 9.25V11.9688H88.5938C91.0625 11.9688 92.6875 13.5938 92.6875 16.0625C92.6875 18.5312 91.0625 20.1562 88.5938 20.1562H85.9062V34.4375C85.9062 36.5625 86.625 37.4062 88.1875 37.5625L88.875 37.6562C91.3438 37.9375 92.7812 39.0312 92.7812 41.5938C92.7812 44.8125 89.2812 46.4375 85 46.4375H84.7188C78.1562 46.4375 74.8125 43.1875 74.8125 36.875Z" fill="#A588FC"/>
</svg>
